<svg xmlns="http://www.w3.org/2000/svg" viewBox="0 0 100 100" width="100" height="100">
  <!-- Mother Cow -->
  <g fill="#25D366" stroke="#2d5016" stroke-width="1">
    <!-- Cow body -->
    <ellipse cx="35" cy="45" rx="18" ry="12"/>
    
    <!-- Cow head -->
    <ellipse cx="50" cy="35" rx="8" ry="6"/>
    
    <!-- Cow legs -->
    <rect x="22" y="52" width="2" height="8" rx="1"/>
    <rect x="27" y="52" width="2" height="8" rx="1"/>
    <rect x="43" y="52" width="2" height="8" rx="1"/>
    <rect x="48" y="52" width="2" height="8" rx="1"/>
    
    <!-- Cow ears -->
    <ellipse cx="45" cy="30" rx="2" ry="3"/>
    <ellipse cx="55" cy="30" rx="2" ry="3"/>
    
    <!-- Cow horns -->
    <path d="M46 28 L44 25" stroke="#FFD700" stroke-width="1.5" fill="none"/>
    <path d="M54 28 L56 25" stroke="#FFD700" stroke-width="1.5" fill="none"/>
    
    <!-- Cow tail -->
    <path d="M17 45 Q12 48 15 52" stroke="#25D366" stroke-width="2" fill="none"/>
    
    <!-- Cow spots -->
    <circle cx="30" cy="42" r="2" fill="#2d5016"/>
    <circle cx="40" cy="48" r="1.5" fill="#2d5016"/>
    <circle cx="25" cy="48" r="1" fill="#2d5016"/>
  </g>
  
  <!-- Baby Calf -->
  <g fill="#20b358" stroke="#2d5016" stroke-width="0.8">
    <!-- Calf body (smaller) -->
    <ellipse cx="68" cy="50" rx="12" ry="8"/>
    
    <!-- Calf head -->
    <ellipse cx="78" cy="43" rx="5" ry="4"/>
    
    <!-- Calf legs -->
    <rect x="60" y="55" width="1.5" height="6" rx="0.5"/>
    <rect x="64" y="55" width="1.5" height="6" rx="0.5"/>
    <rect x="72" y="55" width="1.5" height="6" rx="0.5"/>
    <rect x="76" y="55" width="1.5" height="6" rx="0.5"/>
    
    <!-- Calf ears -->
    <ellipse cx="75" cy="40" rx="1.5" ry="2"/>
    <ellipse cx="81" cy="40" rx="1.5" ry="2"/>
    
    <!-- Small calf spots -->
    <circle cx="65" cy="48" r="1" fill="#2d5016"/>
    <circle cx="72" cy="52" r="0.8" fill="#2d5016"/>
  </g>
  
  <!-- Connection line showing relationship -->
  <path d="M53 40 Q60 42 73 43" stroke="#25D366" stroke-width="1" fill="none" stroke-dasharray="2,2"/>
</svg>
